<?xml version="1.0" encoding="UTF-8"?>
<!-- Uploaded to: SVG Repo, www.svgrepo.com, Generator: SVG Repo Mixer Tools -->
<svg fill="#d8dee9" width="800px" height="800px" viewBox="0 0 32 32" version="1.1" xmlns="http://www.w3.org/2000/svg">
<title>microsoftoutlook</title>
<path d="M29.103 27.069v-9.035l-7.363 4.418zM10.384 27.231h15.462l-9.846-6.14v1.148c-0.017 0.682-0.566 1.231-1.246 1.248l-0.002 0h-4.368zM8.487 20.967c0.027 0.001 0.059 0.001 0.091 0.001 0.687 0 1.342-0.138 1.939-0.387l-0.033 0.012c0.582-0.265 1.076-0.627 1.482-1.070l0.003-0.003c0.391-0.449 0.701-0.981 0.901-1.564l0.010-0.033c0.198-0.582 0.312-1.252 0.312-1.95 0-0.021-0-0.042-0-0.063l0 0.003c0-0.014 0-0.031 0-0.048 0-0.675-0.114-1.324-0.325-1.928l0.012 0.041c-0.2-0.598-0.503-1.114-0.89-1.552l0.004 0.005c-0.391-0.437-0.87-0.788-1.409-1.025l-0.026-0.010c-0.546-0.237-1.182-0.375-1.85-0.375-0.030 0-0.059 0-0.089 0.001l0.004-0c-0.027-0.001-0.059-0.001-0.092-0.001-0.704 0-1.376 0.138-1.99 0.388l0.035-0.013c-0.591 0.248-1.091 0.608-1.494 1.057l-0.003 0.004c-0.412 0.45-0.733 0.993-0.927 1.592l-0.009 0.031c-0.198 0.586-0.312 1.261-0.312 1.963 0 0.025 0 0.050 0 0.075l-0-0.004c-0 0.019-0 0.041-0 0.063 0 0.675 0.119 1.323 0.337 1.922l-0.012-0.039c0.211 0.596 0.526 1.107 0.926 1.538l-0.003-0.003c0.4 0.429 0.887 0.772 1.433 1.001l0.027 0.010c0.551 0.237 1.193 0.375 1.867 0.375 0.028 0 0.056-0 0.084-0.001l-0.004 0zM12.256 5.705v2.808h2.496l0.162 0.012 0.15 0.050v-2.87zM16.936 16.936v2.533l3.008 1.872 1.672-0.998v-3.407zM16.936 11.32v3.744h4.68v-3.744zM16.936 5.705v3.744h4.68v-3.744zM23.488 16.936v2.284l3.806-2.284zM23.488 11.32v3.744h3.744v-3.744zM23.488 5.705v3.744h3.744v-3.744zM30.975 16v11.706c0 0.004 0 0.008 0 0.013 0 0.765-0.62 1.385-1.385 1.385-0.009 0-0.018-0-0.026-0l0.001 0h-19.643c-0.004 0-0.008 0-0.013 0-0.765 0-1.385-0.62-1.385-1.385 0-0.009 0-0.018 0-0.026l-0 0.001v-4.206h-6.252c-0.005 0-0.010 0-0.015 0-0.339 0-0.644-0.144-0.858-0.374l-0.001-0.001c-0.231-0.214-0.374-0.52-0.374-0.858 0-0.005 0-0.011 0-0.016v0.001-12.479c-0-0.005-0-0.010-0-0.015 0-0.339 0.144-0.644 0.374-0.858l0.001-0.001c0.21-0.231 0.512-0.375 0.847-0.375 0.009 0 0.018 0 0.028 0l-0.001-0h8.112v-4.305c-0-0.007-0-0.016-0-0.024 0-0.356 0.143-0.678 0.375-0.912l-0 0c0.23-0.232 0.549-0.375 0.901-0.375 0.012 0 0.025 0 0.037 0.001l-0.002-0h16.098c0.007-0 0.016-0 0.024-0 0.355 0 0.678 0.143 0.912 0.375l-0-0c0.232 0.23 0.375 0.549 0.375 0.901 0 0.012-0 0.025-0.001 0.037l0-0.002v10.358l1.547 0.899h0.012c0.087 0.063 0.162 0.137 0.223 0.222l0.002 0.003c0.054 0.089 0.087 0.197 0.087 0.312v0zM10.858 16.050c0 0.004 0 0.008 0 0.012 0 0.382-0.050 0.752-0.144 1.104l0.007-0.030c-0.085 0.351-0.227 0.66-0.418 0.932l0.006-0.009c-0.184 0.273-0.428 0.493-0.713 0.644l-0.011 0.005c-0.3 0.158-0.654 0.25-1.031 0.25-0.019 0-0.038-0-0.057-0.001l0.003 0c-0.019 0.001-0.042 0.001-0.064 0.001-0.365 0-0.708-0.093-1.007-0.256l0.011 0.006c-0.29-0.174-0.528-0.405-0.706-0.678l-0.005-0.008c-0.179-0.269-0.32-0.581-0.407-0.915l-0.005-0.021c-0.079-0.32-0.125-0.688-0.125-1.066 0-0.002 0-0.005 0-0.007v0c0-0 0-0.001 0-0.001 0-0.385 0.045-0.759 0.131-1.117l-0.007 0.033c0.082-0.361 0.229-0.679 0.429-0.956l-0.005 0.008c0.186-0.284 0.434-0.512 0.726-0.669l0.011-0.005c0.296-0.158 0.648-0.251 1.021-0.251 0.023 0 0.046 0 0.068 0.001l-0.003-0c0.021-0.001 0.045-0.001 0.070-0.001 0.367 0 0.713 0.093 1.015 0.256l-0.011-0.006c0.29 0.174 0.528 0.405 0.706 0.678l0.005 0.008c0.178 0.275 0.313 0.597 0.384 0.943l0.003 0.018c0.079 0.328 0.125 0.704 0.125 1.091 0 0.003 0 0.005 0 0.008v-0z"/>
</svg>